<svg xmlns="http://www.w3.org/2000/svg" width="430" height="1000" viewBox="0 0 430 1000">
  <defs>
    <linearGradient id="clbg" x1="0" y1="0" x2="1" y2="1"><stop stop-color="#F8FAFB"/><stop offset=".64" stop-color="#F2F6F8"/><stop offset="1" stop-color="#EAF2F7"/></linearGradient>
    <radialGradient id="clav"><stop stop-color="#FFD1DA"/><stop offset=".38" stop-color="#C8325E"/><stop offset="1" stop-color="#5A1B30"/></radialGradient>
    <pattern id="clchart" width="98" height="84" patternUnits="userSpaceOnUse"><circle cx="12" cy="16" r=".7" fill="#176B93" opacity=".065"/><circle cx="70" cy="58" r=".5" fill="#176B93" opacity=".04"/></pattern>
    <filter id="clsh" x="-50%" y="-50%" width="200%" height="220%"><feDropShadow dx="0" dy="-6" stdDeviation="12" flood-color="#1B3442" flood-opacity=".13"/></filter>
  </defs>
  <rect width="430" height="44" fill="#17232C"/><text x="16" y="27" fill="#F3F6F8" font-family="-apple-system,Arial" font-size="11" font-weight="750" letter-spacing=".5">PROPOSED MOCKUP · CANDIDATE FINAL · LIGHT</text>
  <g transform="translate(0 44)">
    <rect width="430" height="956" fill="url(#clbg)"/><rect width="430" height="956" fill="url(#clchart)"/>
    <text x="24" y="31" fill="#14202A" font-family="-apple-system,Arial" font-size="14" font-weight="650">9:41</text><g fill="#14202A"><rect x="353" y="21" width="3" height="7" rx="1"/><rect x="358" y="18" width="3" height="10" rx="1"/><rect x="363" y="15" width="3" height="13" rx="1"/><rect x="397" y="17" width="22" height="11" rx="3" fill="none" stroke="#14202A" stroke-width="1.5"/><rect x="399" y="19" width="16" height="7" rx="1.5"/></g>
    <rect y="44" width="430" height="74" fill="#FFFFFF" fill-opacity=".92"/><line x1="0" y1="117.5" x2="430" y2="117.5" stroke="#D5DEE5"/><path d="M30 74l-8 8 8 8" fill="none" stroke="#35434D" stroke-width="2.2" stroke-linecap="round" stroke-linejoin="round"/>
    <circle cx="70" cy="81" r="22" fill="#FFFFFF" stroke="#C8325E" stroke-width="2" stroke-dasharray="7 4"/><circle cx="70" cy="81" r="14.5" fill="url(#clav)"/><circle cx="70" cy="81" r="4.5" fill="#FFD1DA"/><text x="103" y="77" fill="#14202A" font-family="-apple-system,Arial" font-size="16.5" font-weight="710">Maya</text><circle cx="106" cy="96" r="3" fill="#1D7447"/><text x="114" y="100" fill="#4E5C66" font-family="-apple-system,Arial" font-size="12">Connected · Aug 26</text><circle cx="398" cy="81" r="18" fill="#EDF2F5"/><circle cx="398" cy="75" r="1.6" fill="#66747F"/><circle cx="398" cy="81" r="1.6" fill="#66747F"/><circle cx="398" cy="87" r="1.6" fill="#66747F"/>
    <rect x="16" y="132" width="398" height="58" rx="13" fill="#EAF1F5"/><circle cx="42" cy="161" r="13" fill="none" stroke="#C8325E" stroke-opacity=".72" stroke-width="1.5" stroke-dasharray="5 3"/><circle cx="42" cy="161" r="4" fill="#C8325E"/><text x="64" y="155" fill="#14202A" font-family="-apple-system,Arial" font-size="13.5" font-weight="680">Help Maya meet your circle</text><text x="64" y="176" fill="#4E5C66" font-family="-apple-system,Arial" font-size="11.5">Introduce someone who might click</text><text x="393" y="166" text-anchor="end" fill="#176B93" font-family="-apple-system,Arial" font-size="12" font-weight="700">Open</text>
    <line x1="20" y1="213" x2="172" y2="213" stroke="#D5DEE5"/><circle cx="215" cy="213" r="4" fill="none" stroke="#176B93" stroke-width="1.3"/><text x="215" y="217" text-anchor="middle" fill="#66747F" font-family="-apple-system,Arial" font-size="10.5" font-weight="700">TODAY</text><line x1="258" y1="213" x2="410" y2="213" stroke="#D5DEE5"/>
    <rect x="18" y="238" width="230" height="52" rx="15" fill="#FFFFFF"/><rect x="18" y="238" width="2" height="52" rx="1" fill="#C8325E"/><text x="32" y="262" fill="#14202A" font-family="-apple-system,Arial" font-size="14.5">Did you get the latest draft?</text><text x="211" y="280" fill="#66747F" font-family="-apple-system,Arial" font-size="10.5">9:32 PM</text>
    <rect x="18" y="294" width="286" height="77" rx="15" fill="#FFFFFF"/><path d="M18 294h14v10H18z" fill="#FFFFFF"/><text x="32" y="317" fill="#14202A" font-family="-apple-system,Arial" font-size="14.5">The spacing is calmer, but I think the</text><text x="32" y="338" fill="#14202A" font-family="-apple-system,Arial" font-size="14.5">purple still feels borrowed from somewhere.</text><text x="267" y="360" fill="#66747F" font-family="-apple-system,Arial" font-size="10.5">9:33 PM</text>
    <rect x="128" y="384" width="284" height="58" rx="15" fill="#E7EEF3"/><rect x="410" y="384" width="2" height="58" rx="1" fill="#176B93"/><text x="143" y="408" fill="#14202A" font-family="-apple-system,Arial" font-size="14.5">Agreed. Color should come from us,</text><text x="143" y="428" fill="#14202A" font-family="-apple-system,Arial" font-size="14.5">not from a generic app accent.</text><text x="365" y="432" fill="#66747F" font-family="-apple-system,Arial" font-size="10.5">9:35</text><path d="M388 426l4 4 8-9" fill="none" stroke="#176B93" stroke-width="1.4" stroke-linecap="round"/>
    <rect x="18" y="457" width="260" height="62" rx="15" fill="#FFFFFF"/><text x="264" y="482" text-anchor="end" direction="rtl" unicode-bidi="bidi-override" fill="#14202A" font-family="-apple-system,Arial" font-size="14.5">بالضبط، الهوية في المدار نفسه</text><text x="264" y="503" text-anchor="end" direction="rtl" unicode-bidi="bidi-override" fill="#14202A" font-family="-apple-system,Arial" font-size="14.5">وليس في لون زر واحد.</text><text x="239" y="511" fill="#66747F" font-family="-apple-system,Arial" font-size="10.5">9:36</text>
    <rect x="18" y="532" width="288" height="144" rx="16" fill="#FFFFFF"/><rect x="23" y="537" width="278" height="101" rx="12" fill="#DCE7ED"/><circle cx="244" cy="565" r="17" fill="#176B93" fill-opacity=".18"/><path d="M23 620l60-45 54 37 44-32 120 58H23z" fill="#9DB0BC"/><text x="32" y="658" fill="#14202A" font-family="-apple-system,Arial" font-size="13.5">This is the quieter orbit treatment.</text><text x="264" y="666" fill="#66747F" font-family="-apple-system,Arial" font-size="10.5">9:38</text>
    <rect x="143" y="689" width="269" height="59" rx="15" fill="#E7EEF3"/><circle cx="170" cy="719" r="17" fill="#D5EAF4"/><path d="M166 713l10 6-10 6z" fill="#176B93"/><g stroke="#66747F" stroke-width="2" stroke-linecap="round"><path d="M196 719v-5M202 719v-10M208 719v-7M214 719v-14M220 719v-9M226 719v-12M232 719v-6M238 719v-11M244 719v-8M250 719v-13M256 719v-7M262 719v-10M268 719v-5M274 719v-12M280 719v-8M286 719v-10M292 719v-6M298 719v-9M304 719v-5M310 719v-8M316 719v-4M322 719v-7M328 719v-4M334 719v-6"/></g><text x="374" y="722" fill="#4E5C66" font-family="-apple-system,Arial" font-size="11.5">0:18</text><text x="369" y="741" fill="#66747F" font-family="-apple-system,Arial" font-size="10.5">9:40</text><rect x="284" y="741" width="55" height="29" rx="14.5" fill="#FFFFFF" stroke="#D5DEE5"/><text x="311" y="760" text-anchor="middle" fill="#14202A" font-family="Apple Color Emoji,-apple-system,Arial" font-size="13">🌙 2</text>
    <rect x="0" y="800" width="430" height="156" fill="#F8FAFB" fill-opacity=".95" filter="url(#clsh)"/><rect x="12" y="819" width="406" height="58" rx="19" fill="#FFFFFF" stroke="#D5DEE5"/><path d="M42 838v20M32 848h20" stroke="#66747F" stroke-width="2" stroke-linecap="round"/><text x="68" y="854" fill="#66747F" font-family="-apple-system,Arial" font-size="14.5">Write a message…</text><circle cx="383" cy="848" r="20" fill="none" stroke="#176B93" stroke-width="1.5"/><path d="M378 841v8a5 5 0 0010 0v-8M375 849a8 8 0 0016 0M383 857v5" fill="none" stroke="#176B93" stroke-width="2" stroke-linecap="round"/><text x="18" y="902" fill="#66747F" font-family="-apple-system,Arial" font-size="10.5">End-to-end encrypted</text><rect x="151" y="930" width="128" height="5" rx="3" fill="#14202A" fill-opacity=".55"/>
  </g>
</svg>
