<svg xmlns="http://www.w3.org/2000/svg" width="2150" height="1000" viewBox="0 0 2150 1000">
  <defs>
    <linearGradient id="csbg" x1="0" y1="0" x2="1" y2="1"><stop stop-color="#070A0F"/><stop offset="1" stop-color="#0B1420"/></linearGradient>
    <radialGradient id="csav"><stop stop-color="#FFD0DA"/><stop offset=".4" stop-color="#C52B5B"/><stop offset="1" stop-color="#421526"/></radialGradient>
    <pattern id="csstars" width="94" height="82" patternUnits="userSpaceOnUse"><circle cx="11" cy="18" r=".7" fill="#DDEFFF" opacity=".13"/><circle cx="62" cy="51" r=".5" fill="#DDEFFF" opacity=".08"/></pattern>
    <symbol id="base" viewBox="0 0 430 956">
      <rect width="430" height="956" fill="url(#csbg)"/><rect width="430" height="956" fill="url(#csstars)"/>
      <text x="24" y="31" fill="#F3F6F8" font-family="-apple-system,Arial" font-size="14" font-weight="650">9:41</text><g fill="#F3F6F8"><rect x="353" y="21" width="3" height="7" rx="1"/><rect x="358" y="18" width="3" height="10" rx="1"/><rect x="363" y="15" width="3" height="13" rx="1"/><rect x="397" y="17" width="22" height="11" rx="3" fill="none" stroke="#F3F6F8" stroke-width="1.5"/><rect x="399" y="19" width="16" height="7" rx="1.5"/></g>
      <rect y="44" width="430" height="74" fill="#0C1118"/><path d="M30 74l-8 8 8 8" fill="none" stroke="#D5DDE2" stroke-width="2.2" stroke-linecap="round" stroke-linejoin="round"/><circle cx="70" cy="81" r="21" fill="#0A0E14" stroke="#E64A65" stroke-width="2" stroke-dasharray="7 4"/><circle cx="70" cy="81" r="14" fill="url(#csav)"/><text x="103" y="78" fill="#F3F6F8" font-family="-apple-system,Arial" font-size="16.5" font-weight="710">Maya</text><text x="103" y="99" fill="#AEB8C0" font-family="-apple-system,Arial" font-size="12">online</text><circle cx="398" cy="81" r="18" fill="#10151D"/><circle cx="398" cy="75" r="1.6" fill="#AEB8C0"/><circle cx="398" cy="81" r="1.6" fill="#AEB8C0"/><circle cx="398" cy="87" r="1.6" fill="#AEB8C0"/>
      <rect x="18" y="156" width="238" height="53" rx="15" fill="#151B23"/><text x="32" y="181" fill="#DCE2E6" font-family="-apple-system,Arial" font-size="14.5">Send me the final cover?</text><text x="217" y="199" fill="#8A96A0" font-family="-apple-system,Arial" font-size="10.5">9:38</text>
      <rect x="132" y="226" width="280" height="54" rx="15" fill="#1A222C"/><text x="147" y="252" fill="#DCE2E6" font-family="-apple-system,Arial" font-size="14.5">Yes — adding one last note.</text><text x="370" y="270" fill="#8A96A0" font-family="-apple-system,Arial" font-size="10.5">9:39</text>
      <rect x="18" y="298" width="214" height="53" rx="15" fill="#151B23"/><text x="32" y="324" fill="#DCE2E6" font-family="-apple-system,Arial" font-size="14.5">Perfect, thank you.</text><text x="194" y="341" fill="#8A96A0" font-family="-apple-system,Arial" font-size="10.5">9:40</text>
    </symbol>
    <symbol id="keyboard" viewBox="0 0 430 256">
      <rect width="430" height="256" fill="#0B0D12"/><g fill="#20242E"><rect x="10" y="14" width="35" height="42" rx="7"/><rect x="51" y="14" width="35" height="42" rx="7"/><rect x="92" y="14" width="35" height="42" rx="7"/><rect x="133" y="14" width="35" height="42" rx="7"/><rect x="174" y="14" width="35" height="42" rx="7"/><rect x="215" y="14" width="35" height="42" rx="7"/><rect x="256" y="14" width="35" height="42" rx="7"/><rect x="297" y="14" width="35" height="42" rx="7"/><rect x="338" y="14" width="35" height="42" rx="7"/><rect x="379" y="14" width="41" height="42" rx="7"/><rect x="28" y="64" width="38" height="42" rx="7"/><rect x="72" y="64" width="38" height="42" rx="7"/><rect x="116" y="64" width="38" height="42" rx="7"/><rect x="160" y="64" width="38" height="42" rx="7"/><rect x="204" y="64" width="38" height="42" rx="7"/><rect x="248" y="64" width="38" height="42" rx="7"/><rect x="292" y="64" width="38" height="42" rx="7"/><rect x="336" y="64" width="38" height="42" rx="7"/><rect x="59" y="114" width="48" height="42" rx="7"/><rect x="113" y="114" width="204" height="42" rx="7"/><rect x="323" y="114" width="48" height="42" rx="7"/></g><rect x="151" y="236" width="128" height="5" rx="3" fill="#F3F6F8" fill-opacity=".72"/>
    </symbol>
  </defs>

  <!-- IDLE -->
  <g><rect width="430" height="44" fill="#EEF2F5"/><text x="16" y="27" fill="#25323B" font-family="-apple-system,Arial" font-size="11" font-weight="750">PROPOSED MOCKUP · COMPOSER IDLE</text><g transform="translate(0 44)"><use href="#base" width="430" height="956"/><rect x="0" y="796" width="430" height="160" fill="#090D13" fill-opacity=".93"/><rect x="12" y="817" width="406" height="58" rx="19" fill="#151B23"/><path d="M42 836v20M32 846h20" stroke="#AEB8C0" stroke-width="2" stroke-linecap="round"/><text x="68" y="852" fill="#8A96A0" font-family="-apple-system,Arial" font-size="14.5">Write a message…</text><circle cx="383" cy="846" r="20" fill="none" stroke="#7CC8F5" stroke-width="1.5"/><path d="M378 839v8a5 5 0 0010 0v-8M375 847a8 8 0 0016 0M383 855v5" fill="none" stroke="#BFDFF0" stroke-width="2" stroke-linecap="round"/><text x="18" y="900" fill="#8A96A0" font-family="-apple-system,Arial" font-size="10.5">End-to-end encrypted</text><rect x="151" y="930" width="128" height="5" rx="3" fill="#F3F6F8" fill-opacity=".72"/></g></g>

  <!-- TYPING -->
  <g transform="translate(430 0)"><rect width="430" height="44" fill="#EEF2F5"/><text x="16" y="27" fill="#25323B" font-family="-apple-system,Arial" font-size="11" font-weight="750">PROPOSED MOCKUP · COMPOSER TYPING</text><g transform="translate(0 44)"><use href="#base" width="430" height="956"/><rect x="0" y="566" width="430" height="134" fill="#0D1219"/><rect x="12" y="586" width="406" height="82" rx="19" fill="#151B23"/><path d="M39 611v18M30 620h18" stroke="#AEB8C0" stroke-width="2" stroke-linecap="round"/><text x="66" y="611" fill="#F3F6F8" font-family="-apple-system,Arial" font-size="14.5">Here it is — the orbit feels quieter</text><text x="66" y="633" fill="#F3F6F8" font-family="-apple-system,Arial" font-size="14.5">without losing its character.</text><circle cx="383" cy="628" r="20" fill="#7CC8F5"/><path d="M376 628l15-8-5 17-4-6z" fill="none" stroke="#071018" stroke-width="2" stroke-linejoin="round"/><use href="#keyboard" x="0" y="700" width="430" height="256"/></g></g>

  <!-- REPLY -->
  <g transform="translate(860 0)"><rect width="430" height="44" fill="#EEF2F5"/><text x="16" y="27" fill="#25323B" font-family="-apple-system,Arial" font-size="11" font-weight="750">PROPOSED MOCKUP · COMPOSER REPLY</text><g transform="translate(0 44)"><use href="#base" width="430" height="956"/><rect x="0" y="526" width="430" height="174" fill="#0D1219"/><rect x="18" y="544" width="2" height="48" rx="1" fill="#E64A65"/><text x="31" y="558" fill="#E98AA0" font-family="-apple-system,Arial" font-size="10.5" font-weight="750">MAYA</text><text x="31" y="579" fill="#B6C0C8" font-family="-apple-system,Arial" font-size="13">Send me the final cover?</text><path d="M391 551l12 12M403 551l-12 12" stroke="#AEB8C0" stroke-width="1.8" stroke-linecap="round"/><rect x="12" y="611" width="406" height="62" rx="19" fill="#151B23"/><path d="M39 633v18M30 642h18" stroke="#AEB8C0" stroke-width="2" stroke-linecap="round"/><text x="66" y="647" fill="#F3F6F8" font-family="-apple-system,Arial" font-size="14.5">Yes — this is the final one.</text><circle cx="383" cy="642" r="20" fill="#7CC8F5"/><path d="M376 642l15-8-5 17-4-6z" fill="none" stroke="#071018" stroke-width="2" stroke-linejoin="round"/><use href="#keyboard" x="0" y="700" width="430" height="256"/></g></g>

  <!-- ATTACHMENT -->
  <g transform="translate(1290 0)"><rect width="430" height="44" fill="#EEF2F5"/><text x="16" y="27" fill="#25323B" font-family="-apple-system,Arial" font-size="11" font-weight="750">PROPOSED MOCKUP · COMPOSER ATTACHMENT</text><g transform="translate(0 44)"><use href="#base" width="430" height="956"/><rect x="0" y="476" width="430" height="224" fill="#0D1219"/><rect x="16" y="494" width="78" height="72" rx="12" fill="#202A36"/><path d="M16 552l25-22 17 15 12-10 24 21v10H16z" fill="#46596C"/><circle cx="85" cy="504" r="11" fill="#0B0F15"/><path d="M81 500l8 8M89 500l-8 8" stroke="#E0E6E9" stroke-width="1.5"/><rect x="102" y="494" width="78" height="72" rx="12" fill="#202A36"/><path d="M102 552l22-17 18 12 13-15 25 23v11h-78z" fill="#3D5062"/><circle cx="171" cy="504" r="11" fill="#0B0F15"/><path d="M167 500l8 8M175 500l-8 8" stroke="#E0E6E9" stroke-width="1.5"/>
      <path d="M21 583l6 3v5c0 5-3 8-6 10-3-2-6-5-6-10v-5z" fill="none" stroke="#53D184" stroke-width="1.4"/><text x="36" y="594" fill="#9CE7B8" font-family="-apple-system,Arial" font-size="11.5" font-weight="650">Protected media</text><text x="402" y="594" text-anchor="end" fill="#8A96A0" font-family="-apple-system,Arial" font-size="11">2 attachments</text>
      <rect x="12" y="612" width="406" height="66" rx="19" fill="#151B23"/><path d="M39 635v18M30 644h18" stroke="#AEB8C0" stroke-width="2" stroke-linecap="round"/><text x="66" y="649" fill="#F3F6F8" font-family="-apple-system,Arial" font-size="14.5">These two show the final direction.</text><circle cx="383" cy="644" r="20" fill="#7CC8F5"/><path d="M376 644l15-8-5 17-4-6z" fill="none" stroke="#071018" stroke-width="2" stroke-linejoin="round"/><use href="#keyboard" x="0" y="700" width="430" height="256"/></g></g>

  <!-- VOICE RECORDING -->
  <g transform="translate(1720 0)"><rect width="430" height="44" fill="#EEF2F5"/><text x="16" y="27" fill="#25323B" font-family="-apple-system,Arial" font-size="11" font-weight="750">PROPOSED MOCKUP · VOICE RECORDING</text><g transform="translate(0 44)"><use href="#base" width="430" height="956"/><rect x="0" y="790" width="430" height="166" fill="#090D13" fill-opacity=".94"/><rect x="12" y="813" width="406" height="66" rx="19" fill="#151B23"/><text x="29" y="851" fill="#FF918A" font-family="-apple-system,Arial" font-size="12" font-weight="680">Cancel</text><circle cx="95" cy="846" r="4" fill="#FF7B72"/><text x="107" y="851" fill="#F3F6F8" font-family="-apple-system,Arial" font-size="13" font-weight="680">0:18</text><g stroke="#8FA0AA" stroke-width="2" stroke-linecap="round"><path d="M151 849v-7M157 849v-13M163 849v-9M169 849v-17M175 849v-11M181 849v-15M187 849v-8M193 849v-18M199 849v-12M205 849v-20M211 849v-10M217 849v-16M223 849v-8M229 849v-14M235 849v-7M241 849v-12M247 849v-6M253 849v-10M259 849v-5M265 849v-8M271 849v-4M277 849v-7M283 849v-4M289 849v-6M295 849v-3M301 849v-5M307 849v-3M313 849v-4M319 849v-2"/></g><circle cx="383" cy="846" r="20" fill="#7CC8F5"/><rect x="376" y="839" width="14" height="14" rx="3" fill="#071018"/><text x="18" y="904" fill="#8A96A0" font-family="-apple-system,Arial" font-size="10.5">Release to review · slide away to cancel</text><rect x="151" y="930" width="128" height="5" rx="3" fill="#F3F6F8" fill-opacity=".72"/></g></g>
</svg>
